<?xml version="1.0" encoding="UTF-8" standalone="no"?>
<svg width="32" height="32" viewBox="0 0 32 32" xmlns="http://www.w3.org/2000/svg">
<g transform="translate(16,16) rotate(-90) scale(1,-1) translate(-16,-16)">
<path fill="none" stroke="black" stroke-width="1.5" d="M 0.00,56.00 L 1.00,48.96 L 2.00,42.80 L 3.00,37.46 L 4.00,32.88 L 5.00,29.00 L 6.00,25.77 L 7.00,23.12 L 8.00,21.00 L 9.00,19.35 L 10.00,18.11 L 11.00,17.22 L 12.00,16.63 L 13.00,16.26 L 14.00,16.08 L 15.00,16.01 L 16.00,16.00 L 17.00,15.99 L 18.00,15.92 L 19.00,15.74 L 20.00,15.38 L 21.00,14.78 L 22.00,13.89 L 23.00,12.65 L 24.00,11.00 L 25.00,8.88 L 26.00,6.23 L 27.00,3.00 L 28.00,-0.88 L 29.00,-5.46 L 30.00,-10.80 L 31.00,-16.96 L 32.00,-24.00"/>
<rect x="14.00" y="14.00" width="4" height="4" fill="red" />
<rect x="23.60" y="5.36" width="4" height="4" fill="red" />
</g>
</svg>