<?xml version="1.0" encoding="UTF-8" standalone="no"?>
<svg width="32" height="32" viewBox="0 0 32 32" xmlns="http://www.w3.org/2000/svg">
    <path fill="none" stroke="black" stroke-width="1.5" d="M 0.00,26.94 L 1.00,26.89 L 2.00,26.84 L 3.00,26.78 L 4.00,26.71 L 5.00,26.63 L 6.00,26.53 L 7.00,26.42 L 8.00,26.28 L 9.00,26.13 L 10.00,25.95 L 11.00,25.73 L 12.00,25.49 L 13.00,25.20 L 14.00,24.86 L 15.00,24.46 L 16.00,24.00 L 17.00,23.46 L 18.00,22.83 L 19.00,22.09 L 20.00,21.22 L 21.00,20.21 L 22.00,19.03 L 23.00,17.65 L 24.00,16.03 L 25.00,14.14 L 26.00,11.93 L 27.00,9.35 L 28.00,6.33 L 29.00,2.80 L 30.00,-1.32 L 31.00,-6.14 L 32.00,-11.78"/>
    <rect x="7.60" y="24.02" width="4" height="4" fill="red" />
    <rect x="23.60" y="10.86" width="4" height="4" fill="red" />
</svg>