<?xml version="1.0" encoding="UTF-8" standalone="no"?>
<svg width="32" height="32" viewBox="0 0 32 32" xmlns="http://www.w3.org/2000/svg">
    <path fill="none" stroke="black" stroke-width="1.5" d="M 0.00,23.74 L 1.00,23.69 L 2.00,23.64 L 3.00,23.58 L 4.00,23.51 L 5.00,23.43 L 6.00,23.33 L 7.00,23.22 L 8.00,23.08 L 9.00,22.93 L 10.00,22.75 L 11.00,22.53 L 12.00,22.29 L 13.00,22.00 L 14.00,21.66 L 15.00,21.26 L 16.00,20.80 L 17.00,20.26 L 18.00,19.63 L 19.00,18.89 L 20.00,18.02 L 21.00,17.01 L 22.00,15.83 L 23.00,14.45 L 24.00,12.83 L 25.00,10.94 L 26.00,8.73 L 27.00,6.15 L 28.00,3.13 L 29.00,-0.40 L 30.00,-4.52 L 31.00,-9.34 L 32.00,-14.98"/>
    <rect x="7.60" y="20.82" width="4" height="4" fill="red" />
    <rect x="23.60" y="7.66" width="4" height="4" fill="red" />
    <path fill="none" stroke="green" stroke-width="1.5" d="M 0,26 L 32,26" stroke-dasharray="2.5"/>
</svg>