<?xml version="1.0" encoding="UTF-8" standalone="no"?>
<svg width="32" height="32" viewBox="0 0 32 32" xmlns="http://www.w3.org/2000/svg">
    <g transform="rotate(45 16 16)">
        <path fill="none" stroke="black" stroke-width="1.5" d="M 0.00,-1.82 L 1.00,-0.92 L 2.00,-0.04 L 3.00,0.82 L 4.00,1.67 L 5.00,2.49 L 6.00,3.29 L 7.00,4.07 L 8.00,4.80 L 9.00,5.49 L 10.00,6.13 L 11.00,6.70 L 12.00,7.20 L 13.00,7.61 L 14.00,7.91 L 15.00,8.10 L 16.00,8.16 L 17.00,8.10 L 18.00,7.91 L 19.00,7.61 L 20.00,7.20 L 21.00,6.70 L 22.00,6.13 L 23.00,5.49 L 24.00,4.80 L 25.00,4.07 L 26.00,3.29 L 27.00,2.49 L 28.00,1.67 L 29.00,0.82 L 30.00,-0.04 L 31.00,-0.92 L 32.00,-1.82"/>
        <path fill="none" stroke="black" stroke-width="1.5" d="M 0.00,33.82 L 1.00,32.92 L 2.00,32.04 L 3.00,31.18 L 4.00,30.33 L 5.00,29.51 L 6.00,28.71 L 7.00,27.93 L 8.00,27.20 L 9.00,26.51 L 10.00,25.87 L 11.00,25.30 L 12.00,24.80 L 13.00,24.39 L 14.00,24.09 L 15.00,23.90 L 16.00,23.84 L 17.00,23.90 L 18.00,24.09 L 19.00,24.39 L 20.00,24.80 L 21.00,25.30 L 22.00,25.87 L 23.00,26.51 L 24.00,27.20 L 25.00,27.93 L 26.00,28.71 L 27.00,29.51 L 28.00,30.33 L 29.00,31.18 L 30.00,32.04 L 31.00,32.92 L 32.00,33.82"/>    
    </g>
    <path fill="none" stroke="green" stroke-width="1.5" d="M 16,0 L 16,32 M 0,16 L 32,16" stroke-dasharray="2.5"/>
    <rect x="14" y="14" width="4" height="4" fill="red"/>
    <rect x="23" y="10" width="4" height="4" fill="red"/>
</svg>