<?xml version="1.0" encoding="UTF-8" standalone="no"?>
<svg width="32" height="32" viewBox="0 0 32 32" xmlns="http://www.w3.org/2000/svg">
    <path fill="none" stroke="green" stroke-width="1.5" d="M 9.5,0 L 9.5,32 M 22.6,0 L 22.6,32" stroke-dasharray="2.5"/>
    <path fill="none" stroke="black" stroke-width="1.5" d="M -1.00,23.17 Q -1.00,23.17 -0.50,22.03 Q 1.00,19.90 1.50,19.66 Q 2.00,19.42 2.50,19.32 Q 3.00,19.22 3.50,19.23 Q 4.00,19.23 4.50,19.35 Q 5.00,19.46 5.50,19.73 Q 6.00,19.99 6.50,20.54 Q 7.00,21.09 7.50,22.39 Q 8.40,23.69 8.50,32 M 10.50,-11.69 Q 11.20,5.85 11.50,7.96 Q 12.00,10.08 12.50,10.85 Q 13.00,11.63 13.50,11.99 Q 14.00,12.35 14.50,12.53 Q 15.00,12.70 15.50,12.75 Q 16.00,12.80 16.50,12.75 Q 17.00,12.70 17.50,12.53 Q 18.00,12.35 18.50,11.99 Q 19.00,11.63 19.50,10.85 Q 20.00,10.08 20.50,7.96 Q 21.30,5.85 21.50,-11.69 M 23.50,32 Q 23.70,23.69 24.50,22.39 Q 25.00,21.09 25.50,20.54 Q 26.00,19.99 26.50,19.73 Q 27.00,19.46 27.50,19.35 Q 28.00,19.23 28.50,19.23 Q 29.00,19.22 29.50,19.32 Q 30.00,19.42 30.50,19.66 Q 31.00,19.90 31.50,20.40 Q 32.00,20.90 32.50,22.03"/>    
    <rect x="14" y="11" width="4" height="4" fill="red"/>
    <rect x="26.5" y="17.5" width="4" height="4" fill="red"/>
</svg>