<?xml version="1.0" encoding="UTF-8" standalone="no"?>
<svg width="32" height="32" viewBox="0 0 32 32" xmlns="http://www.w3.org/2000/svg">
<path fill="none" stroke="black" stroke-width="1.5" d="M 0.00,12.87 L 1.00,9.15 Q 1.00,9.15 1.50,7.76 Q 2.00,6.38 2.50,5.66 Q 3.00,4.95 3.50,5.00 Q 4.00,5.05 4.50,5.86 Q 5.00,6.68 5.50,8.14 Q 6.00,9.60 6.50,11.50 Q 7.00,13.41 7.50,15.50 Q 8.00,17.58 8.50,19.56 Q 9.00,21.53 9.50,23.12 Q 10.00,24.71 10.50,25.70 Q 11.00,26.69 11.50,26.93 Q 12.00,27.17 12.50,26.64 Q 13.00,26.11 13.50,24.87 Q 14.00,23.63 14.50,21.87 Q 15.00,20.10 15.50,18.05 Q 16.00,16.00 16.50,13.95 Q 17.00,11.90 17.50,10.13 Q 18.00,8.37 18.50,7.13 Q 19.00,5.89 19.50,5.36 Q 20.00,4.83 20.50,5.07 Q 21.00,5.31 21.50,6.30 Q 22.00,7.29 22.50,8.88 Q 23.00,10.47 23.50,12.44 Q 24.00,14.42 24.50,16.50 Q 25.00,18.59 25.50,20.50 Q 26.00,22.40 26.50,23.86 Q 27.00,25.32 27.50,26.14 Q 28.00,26.95 28.50,27.00 Q 29.00,27.05 29.50,26.34 Q 30.00,25.62 30.50,24.24 Q 31.00,22.85 31.50,20.99"/>
<rect x="14.00" y="14.00" width="4" height="4" fill="red" />
<rect x="18.19" y="2.80" width="4" height="4" fill="red" />
</svg>