<?xml version="1.0" encoding="UTF-8" standalone="no"?>
<svg width="32" height="32" viewBox="0 0 32 32" xmlns="http://www.w3.org/2000/svg">
<path fill="none" stroke="black" stroke-width="1.5" d="M 6.00,23.34 L 7.00,22.83 L 8.00,21.07 L 9.00,19.83 L 10.00,18.81 L 11.00,17.93 L 12.00,17.13 L 13.00,16.41 L 14.00,15.74 L 15.00,15.11 L 16.00,14.51 L 17.00,13.95 L 18.00,13.41 L 19.00,12.90 L 20.00,12.41 L 21.00,11.93 L 22.00,11.47 L 23.00,11.02 L 24.00,10.59 L 25.00,10.17 L 26.00,9.76 L 27.00,9.36 L 28.00,8.97 L 29.00,8.59 L 30.00,8.22 L 31.00,7.86 L 32.00,7.50"/>
<rect x="4.40" y="23.60" width="4" height="4" fill="red" />
<rect x="20.40" y="9.29" width="4" height="4" fill="red" />
</svg>