<?xml version="1.0" encoding="UTF-8" standalone="no"?>
<svg width="32" height="32" viewBox="0 0 32 32" xmlns="http://www.w3.org/2000/svg">
    <path fill="none" stroke="green" stroke-width="1.5" d="M 8.7,0 L 8.7,32 M 23.3,0 L 23.3,32" stroke-dasharray="2.5"/>
    <path fill="none" stroke="black" stroke-width="1.5" d="M -1.00,18.08 Q -1.00,18.08 -0.50,17.64 L 1.00,16.45 Q 1.00,16.45 1.50,16.10 Q 2.00,15.75 2.50,15.38 Q 3.00,15.02 3.50,14.60 Q 4.00,14.18 4.50,13.64 Q 5.00,13.11 5.50,12.30 Q 6.00,11.49 6.50,9.94 Q 7.40,8.39 7.50,0 M 9.50,62.49 Q 9.6,28.11 10.50,25.15 Q 11.00,22.19 11.50,21.01 Q 12.00,19.83 12.50,19.15 Q 13.00,18.46 13.50,17.98 Q 14.00,17.50 14.50,17.10 Q 15.00,16.71 15.50,16.36 Q 16.00,16.00 16.50,15.64 Q 17.00,15.29 17.50,14.90 Q 18.00,14.50 18.50,14.02 Q 19.00,13.54 19.50,12.85 Q 20.00,12.17 20.50,10.99 Q 21.00,9.81 21.50,6.85 Q 22.30,3.89 22.50,-30.49 M 24.50,32 Q 24.6,23.61 25.50,22.06 Q 26.00,20.51 26.50,19.70 Q 27.00,18.89 27.50,18.36 Q 28.00,17.82 28.50,17.40 Q 29.00,16.98 29.50,16.62 Q 30.00,16.25 30.50,15.90 Q 31.00,15.55 31.50,15.18 Q 32.00,14.80 32.50,14.36"/>
    <rect x="14" y="14" width="4" height="4" fill="red"/>
    <rect x="21.3" y="14" width="4" height="4" fill="red"/>
    <rect x="4" y="9" width="4" height="4" fill="red"/>
</svg>