<?xml version="1.0" encoding="UTF-8" standalone="no"?>
<svg xmlns="http://www.w3.org/2000/svg" viewBox="0 0 28 16" width="28" height="16" xml:space="preserve">
<path d="M12.783 13.838c-.082.012-.167-.054-.247-.093q-.167-.079-.336-.155a42 42 0 0 1-.85-.407c-.14-.07-.235-.049-.367.014q-.576.276-1.172.507c-.14.054-.22.122-.266.261-.147.445-.314.883-.452 1.33-.05.163-.13.202-.286.2a24 24 0 0 0-1.332.001c-.201.007-.297-.05-.357-.25a23 23 0 0 0-.459-1.327.4.4 0 0 0-.194-.192 29 29 0 0 0-1.236-.547.45.45 0 0 0-.316-.013 28 28 0 0 0-1.293.612c-.127.064-.203.047-.3-.054q-.507-.525-1.031-1.031c-.095-.092-.104-.165-.048-.281.196-.398.37-.807.573-1.2.094-.18.07-.313-.017-.485a10 10 0 0 1-.482-1.1.42.42 0 0 0-.298-.294c-.445-.145-.885-.307-1.331-.45C.55 8.842.5 8.781.503 8.638q.015-.716 0-1.433c-.003-.154.052-.22.194-.267q.693-.223 1.376-.475a.44.44 0 0 0 .214-.204q.297-.608.563-1.23a.44.44 0 0 0 .012-.31 29 29 0 0 0-.611-1.293c-.063-.126-.051-.204.052-.303q.518-.495 1.012-1.014c.111-.117.197-.107.324-.044.427.212.856.421 1.291.616a.43.43 0 0 0 .295-.005q.61-.227 1.208-.486a.46.46 0 0 0 .232-.216c.172-.426.327-.86.477-1.294.046-.133.113-.179.254-.177q.729.013 1.458 0c.133-.001.19.05.232.171.146.427.308.849.456 1.275.048.139.123.207.269.255.404.135.794.31 1.195.453a.47.47 0 0 0 .315.003q.643-.284 1.27-.602c.131-.066.215-.067.323.047.334.353.684.69 1.017 1.045.048.052.067.182.038.25-.201.45-.425.89-.625 1.341a.43.43 0 0 0 .008.292c.143.392.311.775.45 1.168.052.145.112.236.267.288.413.137.816.302 1.227.442.155.052.203.132.2.29-.01.461-.014.923 0 1.383.007.18-.065.248-.22.3q-.628.216-1.246.463a.42.42 0 0 0-.204.214q-.253.627-.474 1.266a.4.4 0 0 0 .016.275c.196.435.41.86.605 1.296.032.07.029.205-.017.255q-.222.234-.448.463c-.213.218-.43.432-.638.654a.15.15 0 0 1-.087.048zm-2.346-5.913c.004-1.28-1.026-2.327-2.292-2.331-1.3-.005-2.344 1.013-2.349 2.29-.005 1.307 1.02 2.35 2.31 2.35a2.315 2.315 0 0 0 2.331-2.31z" fill="#e3e3e3" stroke="#aaa"></path>
<path d="M19,6 L27,6 L23,10Z" fill="#666666" stroke="#666666" stroke-width="1" stroke-linejoin="round"></path>
</svg>