<svg width="16" height="16" viewBox="0 0 16 16" xmlns="http://www.w3.org/2000/svg"><circle style="fill:#fffcaa;fill-opacity:1;stroke:#b3b3b3;stroke-width:.73" cx="8" cy="8" r="7.633"/><path d="M4.622 5.718q0-.642.412-1.297.413-.663 1.203-1.095t1.844-.432q.98 0 1.73.365.75.357 1.155.98.412.62.412 1.35 0 .575-.237 1.007a3 3 0 0 1-.554.75q-.317.31-1.148 1.054a5 5 0 0 0-.372.371 1.4 1.4 0 0 0-.31.554q-.034.129-.108.46-.129.702-.804.702a.83.83 0 0 1-.595-.23q-.236-.23-.236-.682 0-.567.175-.98.176-.418.466-.73.29-.315.784-.749.433-.378.622-.567.195-.196.324-.433.135-.236.135-.513 0-.54-.405-.912-.398-.372-1.034-.372-.743 0-1.094.379-.352.37-.595 1.1-.23.765-.871.764a.87.87 0 0 1-.642-.263q-.257-.27-.257-.581m3.299 7.812q-.495 0-.868-.317-.366-.325-.366-.9 0-.512.358-.861.357-.35.876-.349.511 0 .86.349.35.35.35.86 0 .569-.366.893a1.23 1.23 0 0 1-.844.325"/></svg>