<?xml version="1.0" encoding="utf-8"?>
<!-- License: MIT. Made by joypixels: https://github.com/joypixels/emojione -->
<svg width="20px" height="20px" viewBox="0 0 64 64" xmlns="http://www.w3.org/2000/svg" xmlns:xlink="http://www.w3.org/1999/xlink" aria-hidden="true" role="img" class="iconify iconify--emojione" preserveAspectRatio="xMidYMid meet"><path fill="#ffce31" d="M7.934 41.132L39.828 9.246l14.918 14.922l-31.895 31.886z"></path><path d="M61.3 4.6l-1.9-1.9C55.8-.9 50-.9 46.3 2.7l-6.5 6.5l15 15l6.5-6.5c3.6-3.6 3.6-9.5 0-13.1" fill="#ed4c5c"></path><path fill="#93a2aa" d="M35.782 13.31l4.1-4.102l14.92 14.92l-4.1 4.101z"></path><path fill="#c7d3d8" d="M37.338 14.865l4.1-4.101l11.739 11.738l-4.102 4.1z"></path><path fill="#fed0ac" d="M7.9 41.1l-6.5 17l4.5 4.5l17-6.5z"></path><path d="M.3 61.1c-.9 2.4.3 3.5 2.7 2.6l8.2-3.1l-7.7-7.7l-3.2 8.2" fill="#333"></path><path fill="#ffdf85" d="M7.89 41.175l27.86-27.86l4.95 4.95l-27.86 27.86z"></path><path fill="#ff8736" d="M17.904 51.142l27.86-27.86l4.95 4.95l-27.86 27.86z"></path></svg>