<?xml version="1.0" encoding="UTF-8" standalone="no"?>
<svg xmlns="http://www.w3.org/2000/svg" viewBox="0 0 24 24" width="16" height="16" stroke="black" stroke-width="2" fill="none" stroke-linecap="round" stroke-linejoin="round">
<path transform="translate(0,-2.7)" d="M22.54 6.42a2.78 2.78 0 0 0-1.94-2C18.88 4 12 4 12 4s-6.88 0-8.6.46a2.78 2.78 0 0 0-1.94 2A29 29 0 0 0 1 11.75a29 29 0 0 0 .46 5.33A2.78 2.78 0 0 0 3.4 19c1.72.46 8.6.46 8.6.46s6.88 0 8.6-.46a2.78 2.78 0 0 0 1.94-2 29 29 0 0 0 .46-5.25 29 29 0 0 0-.46-5.33z"></path>
<polygon transform="translate(0,-3)" points="9.75 15.02 15.5 11.75 9.75 8.48 9.75 15.02"></polygon>
<rect x="3.5" y="13.25" width="17" height="10.75" rx="4" ry="4" fill="#000" stroke="none"></rect>
<path stroke="#fff" fill="none" d="M10.5,16.25 a 2.7 3 0 1 0 0 5 M17,16.25 a 2.7 3 0 1 0 0 5" stroke-width="1.5"/>
<path d="M5,1 L19,23" stroke="red"></path>
</svg>